<svg xmlns="http://www.w3.org/2000/svg" xmlns:xlink="http://www.w3.org/1999/xlink">
  <symbol viewBox="0 0 24 24" id="pelicula"><!-- Icon from Material Design Icons by Pictogrammers - https://github.com/Templarian/MaterialDesign/blob/master/LICENSE --><path fill="currentColor" d="m20.84 2.18l-3.93.78l2.74 3.54l1.97-.4zm-6.87 1.36L12 3.93l2.75 3.53l1.96-.39zm-4.9.96l-1.97.41l2.75 3.53l1.96-.39zm-4.91 1l-.98.19a2 2 0 0 0-1.57 2.35L2 10l4.9-.97zM2 10v10a2 2 0 0 0 2 2h16c1.11 0 2-.89 2-2V10z"></path></symbol>
  <symbol viewBox="0 0 24 24" id="serie"><!-- Icon from Material Design Icons by Pictogrammers - https://github.com/Templarian/MaterialDesign/blob/master/LICENSE --><path fill="currentColor" d="M21 17H3V5h18m0-2H3a2 2 0 0 0-2 2v12a2 2 0 0 0 2 2h5v2h8v-2h5a2 2 0 0 0 2-2V5a2 2 0 0 0-2-2"></path></symbol>
  <symbol viewBox="0 0 512 512" id="anime"><!-- Icon from File Icons by John Gardner - https://github.com/file-icons/icons/blob/master/LICENSE.md --><path fill="currentColor" fill-rule="evenodd" d="m368.256 214.573l-102.627 187.35c40.554 71.844 73.647 97.07 138.664 94.503c63.67-2.514 136.974-89.127 95.694-163.243L397.205 150.94c-3.676 12.266-25.16 55.748-28.95 63.634M216.393 440.625C104.077 583.676-57.957 425.793 20.85 302.892c0 0 83.895-147.024 116.521-204.303c25.3-44.418 53.644-72.37 90.497-81.33c44.94-10.926 97.565 12.834 125.62 56.167c19.497 30.113 36.752 57.676 6.343 109.738c-3.613 6.184-136.326 248.402-143.438 257.46m8.014-264.595c-30.696-17.696-30.696-62.177 0-79.873s69.273 4.544 69.273 39.936s-38.578 57.633-69.273 39.937" clip-rule="evenodd"></path></symbol>
</svg>


